<?xml version="1.0" encoding="utf-8"?><svg xmlns="http://www.w3.org/2000/svg" xmlns:xlink="http://www.w3.org/1999/xlink" width="1305" height="742" preserveAspectRatio="xMidYMid" viewBox="0 0 1305 742" style="z-index:1;margin-right:-2px;display:block;background-repeat-y:initial;background-repeat-x:initial;background-color:rgb(255, 255, 255);animation-play-state:paused" ><g transform="" style="animation-play-state:paused" ><linearGradient id="lg-0.07094481133546782" x1="0" x2="1" y1="0" y2="0" style="animation-play-state:paused" ><stop stop-color="#ff00ff" offset="0" style="animation-play-state:paused" ></stop>

  
<stop stop-color="#00ffff" offset="1" style="animation-play-state:paused" ></stop></linearGradient>
<path fill="url(#lg-0.07094481133546782)" opacity="0.4" d="M 0 0 M 0 560.213 Q 65.25 559.613 130.5 554.339 T 261 587.508 T 391.5 551.121 T 522 588.785 T 652.5 485.248 T 783 501.519 T 913.5 548.791 T 1044 502.138 T 1174.5 505.27 T 1305 432.384 L 1305 274.649 Q 1239.75 211.51 1174.5 202.931 T 1044 212.367 T 913.5 234.473 T 783 152.127 T 652.5 177.762 T 522 207.327 T 391.5 103.012 T 261 194.078 T 130.5 218.61 T 0 94.6003 Z" style="opacity:0.4;animation-play-state:paused" ></path>
<path fill="url(#lg-0.07094481133546782)" opacity="0.4" d="M 0 0 M 0 659.87 Q 65.25 581.025 130.5 575.926 T 261 630.98 T 391.5 629.484 T 522 527.102 T 652.5 570.119 T 783 491.301 T 913.5 534.717 T 1044 486.75 T 1174.5 490.015 T 1305 441.704 L 1305 292.921 Q 1239.75 272.291 1174.5 264.931 T 1044 265.026 T 913.5 218.258 T 783 200.422 T 652.5 200.368 T 522 162.302 T 391.5 192.921 T 261 155.246 T 130.5 203.295 T 0 147.273 Z" style="opacity:0.4;animation-play-state:paused" ></path>
<path fill="url(#lg-0.07094481133546782)" opacity="0.4" d="M 0 0 M 0 614.388 Q 65.25 595.937 130.5 588.403 T 261 612.851 T 391.5 562.311 T 522 512.286 T 652.5 560.775 T 783 504.975 T 913.5 507.263 T 1044 486.019 T 1174.5 460.367 T 1305 480.975 L 1305 238.828 Q 1239.75 251.183 1174.5 243.88 T 1044 235.415 T 913.5 245.523 T 783 215.349 T 652.5 155.947 T 522 182.483 T 391.5 190.104 T 261 114.674 T 130.5 158.315 T 0 182.683 Z" style="opacity:0.4;animation-play-state:paused" ></path>
<path fill="url(#lg-0.07094481133546782)" opacity="0.4" d="M 0 0 M 0 575.211 Q 65.25 557.737 130.5 554.675 T 261 614.297 T 391.5 612.639 T 522 526.349 T 652.5 505.37 T 783 497.579 T 913.5 539.314 T 1044 465.591 T 1174.5 457.018 T 1305 427.435 L 1305 285.001 Q 1239.75 306.655 1174.5 303.609 T 1044 248.193 T 913.5 260.634 T 783 218.458 T 652.5 168.918 T 522 237.637 T 391.5 173.297 T 261 136.979 T 130.5 171.11 T 0 138.101 Z" style="opacity:0.4;animation-play-state:paused" ></path></g></svg>